<svg width="147px" height="148px">
<defs>
<linearGradient id="PSgrad_0" x1="0%" x2="70.711%" y1="0%" y2="70.711%">
  <stop class="stop_1" offset="0%" stop-color="rgb(160,13,249)" stop-opacity="1"></stop>
  <stop class="stop_2" offset="100%" stop-color="rgb(227,0,90)" stop-opacity="1"></stop>
</linearGradient>

</defs>
<path fill-rule="evenodd" fill="url(#PSgrad_0)" d="M145.044,112.540 L112.899,80.188 L107.270,85.853 L138.495,117.281 L116.480,139.436 L78.990,101.706 L145.044,35.225 C147.640,32.613 147.642,28.362 145.044,25.744 L121.398,1.945 C118.797,-0.667 114.569,-0.667 111.979,1.947 L73.593,40.582 L35.206,1.947 C32.609,-0.665 28.385,-0.669 25.788,1.947 L1.932,25.955 C-0.665,28.569 -0.665,32.821 1.932,35.434 L67.776,101.706 L30.287,139.436 L8.481,117.490 L40.634,85.132 L35.005,79.466 L1.928,112.751 C-0.665,115.367 -0.663,119.619 1.932,122.230 L25.576,146.028 C28.094,148.563 32.484,148.559 34.997,146.028 L73.383,107.394 L111.768,146.026 C113.026,147.294 114.700,147.992 116.480,147.992 C118.259,147.992 119.932,147.296 121.191,146.028 L145.048,122.020 C147.642,119.404 147.640,115.152 145.044,112.540 M30.496,8.541 L73.593,51.914 L116.690,8.539 L138.495,30.485 L73.383,96.017 L8.483,30.696 L30.496,8.541 Z"></path>
</svg>