<svg width="152px" height="32px">
<path fill-rule="evenodd" fill="rgb(255, 255, 255)" d="M137.247,21.990 L145.380,30.148 L150.156,25.358 L143.382,18.563 L144.603,17.338 L151.577,24.333 C152.140,24.898 152.140,25.817 151.577,26.383 L146.402,31.574 C146.129,31.848 145.766,31.998 145.380,31.998 C144.994,31.998 144.631,31.847 144.358,31.573 L136.031,23.220 L127.704,31.574 C127.159,32.121 126.206,32.122 125.660,31.574 L120.531,26.428 C119.968,25.864 119.968,24.944 120.530,24.379 L127.705,17.182 L128.927,18.407 L121.952,25.403 L126.682,30.148 L134.814,21.990 L120.531,7.661 C119.968,7.096 119.968,6.177 120.531,5.612 L125.706,0.421 C126.269,-0.145 127.186,-0.144 127.749,0.421 L136.076,8.775 L144.404,0.421 C144.965,-0.144 145.883,-0.144 146.447,0.421 L151.577,5.566 C152.140,6.132 152.140,7.052 151.577,7.616 L137.247,21.990 ZM145.426,1.846 L136.076,11.225 L126.727,1.847 L121.952,6.637 L136.031,20.761 L150.156,6.591 L145.426,1.846 ZM109.280,25.887 L105.368,18.786 L102.261,18.786 L102.261,25.887 L98.020,25.887 L98.020,5.903 L107.356,5.903 C108.393,5.903 109.326,6.063 110.153,6.382 C110.982,6.702 111.684,7.152 112.263,7.731 C112.842,8.310 113.285,8.994 113.595,9.783 C113.904,10.572 114.059,11.426 114.059,12.344 C114.059,13.224 113.933,14.003 113.683,14.681 C113.432,15.361 113.097,15.945 112.676,16.434 C112.254,16.924 111.783,17.323 111.262,17.633 C110.741,17.942 110.210,18.157 109.669,18.277 L114.148,25.887 L109.280,25.887 ZM109.698,12.344 C109.698,11.506 109.415,10.846 108.847,10.367 C108.279,9.888 107.568,9.648 106.712,9.648 L102.261,9.648 L102.261,15.041 L106.712,15.041 C107.568,15.041 108.279,14.801 108.847,14.322 C109.415,13.842 109.698,13.183 109.698,12.344 ZM80.608,5.903 L94.705,5.903 L94.705,9.648 L84.849,9.648 L84.849,13.872 L94.496,13.872 L94.496,17.618 L84.849,17.618 L84.849,22.142 L94.705,22.142 L94.705,25.887 L80.608,25.887 L80.608,5.903 ZM63.077,12.854 L63.077,25.887 L58.836,25.887 L58.836,5.903 L63.197,5.903 L72.425,18.456 L72.425,5.903 L76.666,5.903 L76.666,25.887 L72.575,25.887 L63.077,12.854 ZM49.369,25.887 L45.128,25.887 L45.128,17.707 L37.452,5.903 L42.291,5.903 L47.248,13.932 L52.147,5.903 L56.985,5.903 L49.369,17.707 L49.369,25.887 ZM34.883,25.887 L33.659,22.501 L25.117,22.501 L23.863,25.887 L19.025,25.887 L26.730,5.903 L32.046,5.903 L39.722,25.887 L34.883,25.887 ZM29.388,10.157 L26.282,18.756 L32.494,18.756 L29.388,10.157 ZM7.705,25.887 L0.000,5.903 L4.838,5.903 L10.364,21.273 L15.859,5.903 L20.697,5.903 L13.022,25.887 L7.705,25.887 Z"></path>
</svg>